# xmcd
#
# Track frame offsets: 
#        150
#        3689
#        14769
#        27026
#        38312
#        50185
#        62587
#        75892
#        85869
#        97290
#        109602
#        119890
#        131896
#        143285
#        159786
#        173462
#        187404
#        200776
#        214209
#        227367
#        242167
#        256707
#        271162
#        285631
#        300229
#        316307
#        330216
#        344127
#
# Disc length: 4772 seconds
#
# Revision: 0
# Processed by: cddbd v1.5.1PL0 Copyright (c) Steve Scherf et al.
# Submitted via: ExactAudioCopy v0.95b2
#
DISCID=8112a21c
DTITLE=Ernst, Bobbie en de rest - Liedjes uit de dierentuin en van de 
DTITLE=boerderij
DYEAR=1999
DGENRE=Other
TTITLE0=Ernst, Bobbie and de rest
TTITLE1=De blurkies
TTITLE2=Ja, ja, ja, jarig
TTITLE3=Met apen kun je lachen
TTITLE4=Dieren in de dierentuin
TTITLE5=We maken schoon
TTITLE6=M'n kadootje is zoek
TTITLE7=De dierentuin is dicht
TTITLE8=Een ei
TTITLE9=Ik ben verliefd
TTITLE10=Zonder water kun je niet
TTITLE11=We eten kippensoep met boerenkool
TTITLE12=Als ik me camoufleer
TTITLE13=Ja, dan moet je huilen
TTITLE14=De snuggertjes
TTITLE15=We bouwen een hele nieuwe schuur
TTITLE16=We maken kaas
TTITLE17=Je bent een soepkip
TTITLE18=Wij zijn tractormonteur
TTITLE19=We zijn zo bang
TTITLE20=Koeien melken
TTITLE21=Van vliegen wordt je blij
TTITLE22=Wat is lekker fris
TTITLE23=De trui-brei-boogie
TTITLE24=Waar ben je nou?
TTITLE25=We gaan voeren
TTITLE26=De kippendief
TTITLE27=Cowboylied
EXTD=
EXTT0=
EXTT1=
EXTT2=
EXTT3=
EXTT4=
EXTT5=
EXTT6=
EXTT7=
EXTT8=
EXTT9=
EXTT10=
EXTT11=
EXTT12=
EXTT13=
EXTT14=
EXTT15=
EXTT16=
EXTT17=
EXTT18=
EXTT19=
EXTT20=
EXTT21=
EXTT22=
EXTT23=
EXTT24=
EXTT25=
EXTT26=
EXTT27=
PLAYORDER=
